HIERARCHY
ROOT Hips
{
    OFFSET 0.0 0.0 0.0
    CHANNELS 6 Xposition Yposition Zposition Zrotation Xrotation Yrotation
    JOINT LeftHipJoint
    {
        OFFSET 0.1 0.0 0.0
        CHANNELS 3 Zrotation Xrotation Yrotation
        JOINT LeftUpLeg
        {
            OFFSET 129.14881626110403 0.0 0.0
            CHANNELS 3 Zrotation Xrotation Yrotation
            JOINT LeftLeg
            {
                OFFSET 0.0 0.0 -428.0016151432577
                CHANNELS 3 Zrotation Xrotation Yrotation
                JOINT LeftFoot
                {
                    OFFSET 0.0 0.0 -404.4221943707124
                    CHANNELS 3 Zrotation Xrotation Yrotation
                    End Site
                    {
                        OFFSET 0.0 -0.1 0.0
                    }
                }
            }
        }
    }
    JOINT LowerBack
    {
        OFFSET 0.0 0.0 0.1
        CHANNELS 3 Zrotation Xrotation Yrotation
        JOINT Spine
        {
            OFFSET 0.0 0.0 228.93352955674922
            CHANNELS 3 Zrotation Xrotation Yrotation
            JOINT Spine1
            {
                OFFSET 0.0 0.0 255.42609476433464
                CHANNELS 3 Zrotation Xrotation Yrotation
                JOINT LeftShoulder
                {
                    OFFSET 0.1 0.0 0.0
                    CHANNELS 3 Zrotation Xrotation Yrotation
                    JOINT LeftArm
                    {
                        OFFSET 151.64610011308355 0.0 0.0
                        CHANNELS 3 Zrotation Xrotation Yrotation
                        JOINT LeftForeArm
                        {
                            OFFSET 277.83639649273834 0.0 0.0
                            CHANNELS 3 Zrotation Xrotation Yrotation
                            JOINT LeftHand
                            {
                                OFFSET 252.8018248971477 0.0 0.0
                                CHANNELS 3 Zrotation Xrotation Yrotation
                                End Site
                                {
                                    OFFSET 0.1 0.0 0.0
                                }
                            }
                        }
                    }
                }
                JOINT Neck
                {
                    OFFSET 0.0 0.0 0.1
                    CHANNELS 3 Zrotation Xrotation Yrotation
                    JOINT Neck1
                    {
                        OFFSET 0.0 0.0 112.04960854863039
                        CHANNELS 3 Zrotation Xrotation Yrotation
                        End Site
                        {
                            OFFSET 0.0 0.0 116.10170778602198
                        }
                    }
                }
                JOINT RightShoulder
                {
                    OFFSET -0.1 0.0 0.0
                    CHANNELS 3 Zrotation Xrotation Yrotation
                    JOINT RightArm
                    {
                        OFFSET -151.64610011308355 0.0 0.0
                        CHANNELS 3 Zrotation Xrotation Yrotation
                        JOINT RightForeArm
                        {
                            OFFSET -277.83639649273834 0.0 0.0
                            CHANNELS 3 Zrotation Xrotation Yrotation
                            JOINT RightHand
                            {
                                OFFSET -252.8018248971477 0.0 0.0
                                CHANNELS 3 Zrotation Xrotation Yrotation
                                End Site
                                {
                                    OFFSET -0.1 0.0 0.0
                                }
                            }
                        }
                    }
                }
            }
        }
    }
    JOINT RightHipJoint
    {
        OFFSET -0.1 0.0 0.0
        CHANNELS 3 Zrotation Xrotation Yrotation
        JOINT RightUpLeg
        {
            OFFSET -129.14881626110403 0.0 0.0
            CHANNELS 3 Zrotation Xrotation Yrotation
            JOINT RightLeg
            {
                OFFSET 0.0 0.0 -428.0016151432577
                CHANNELS 3 Zrotation Xrotation Yrotation
                JOINT RightFoot
                {
                    OFFSET 0.0 0.0 -404.4221943707124
                    CHANNELS 3 Zrotation Xrotation Yrotation
                    End Site
                    {
                        OFFSET 0.0 -0.1 0.0
                    }
                }
            }
        }
    }
}
MOTION
Frames: 10
Frame Time: 0.03333333333333333
0.0 0.0 832.7248586497032 24.443652950535007 -18.650764064836842 3.7854916022838414 3.1805546814635168e-15 0.0 0.0 0.011965584139161291 9.785781383266572 0.603415136092393 0.2725655348587939 22.9472771376005 -4.544032098740556 0.0 0.0 -3.9756933518293955e-16 3.1805546814635168e-15 0.0 0.0 0.006690010983940119 9.467009756896982 0.6148480284525613 0.09720794266343083 -2.985141518613042e-16 -3.973162488152176e-16 3.1805546814635164e-15 -2.2069531490250793e-32 -7.951386703658791e-16 -86.5634024097155 14.279882090219264 45.37393036868811 -110.84921020512463 1.804933628127873e-15 2.6188055826717355e-15 -1.5902773407317584e-15 0.0 0.0 3.1805546814635164e-15 -2.2069531490250793e-32 -7.951386703658791e-16 -4.691780607381861 -6.450468505929706 -5.58494521098186 3.1805546814635164e-15 -2.2069531490250793e-32 -7.951386703658791e-16 75.09345571469602 2.3788377816030692 -39.026460727203194 118.14658104765354 8.725957456826372e-15 -2.1874851121532732e-15 0.0 0.0 0.0 3.1805546814635168e-15 0.0 0.0 0.004081334737069796 12.788613575584003 -2.8993826923871784 -1.0256859682342738 19.727030117387937 4.700140563225539 -1.3793457181406746e-33 -1.987846675914698e-16 -7.951386703658792e-16
0.0 0.0 832.7248586497032 24.40841775354557 -18.60004958036947 3.8196837978474947 0.0 0.0 0.0 0.012024391429336718 9.717926346501313 0.5307492722434688 0.2424912961130955 22.970235334422092 -4.483021718556777 0.0 0.0 0.0 0.0 0.0 0.0 0.006841567397291021 9.444625964960707 0.604739127342346 0.11240848834061322 1.1927074317005674e-15 -1.1699856741025111e-18 0.0 0.0 0.0 -86.63390470042575 14.416508266252832 45.28984027323312 -110.89411805096542 -7.042932644659304e-15 9.883016602686446e-16 0.0 0.0 -7.951386703658792e-16 0.0 0.0 0.0 -4.690634364612412 -6.436949532388288 -5.54984719722484 0.0 0.0 0.0 75.02132130375406 2.2302809420991285 -38.98285767392349 118.32499026717174 1.092360917797873e-14 6.521473133828795e-15 0.0 0.0 7.951386703658792e-16 0.0 0.0 0.0 0.004341933254774691 12.74384794863657 -2.9296160002030027 -1.035439746157943 19.713963275063467 4.65396167044504 0.0 0.0 -3.975693351829396e-16
0.0 0.0 832.7248586497032 24.40499600660146 -18.572321302690526 3.87522824995092 0.0 0.0 0.0 0.010478114774060677 9.712682522488373 0.4287320409096069 0.195377369785119 22.965345482799695 -4.378993508583824 0.0 0.0 0.0 0.0 0.0 0.0 0.005377790189863183 9.46684035809636 0.5779366747172202 0.12268951979918848 1.6888173766696677e-15 -7.96947289591756e-16 0.0 0.0 -7.951386703658792e-16 -86.73144018762217 14.468007256294817 45.23890969276832 -110.85077607882306 -1.4085116670998009e-14 1.9819308766866237e-15 0.0 0.0 7.951386703658792e-16 0.0 0.0 -7.951386703658792e-16 -4.6940383247287105 -6.4790867568207915 -5.521646845981831 0.0 0.0 -7.951386703658792e-16 75.00551067226138 2.1077248986251274 -38.96980316740362 118.43157458853806 1.6278275017202184e-15 -2.732417557113628e-15 0.0 0.0 -7.951386703658792e-16 0.0 0.0 0.0 0.0023248539130558254 12.688422504737916 -2.9897913682353963 -1.060660277969281 19.719616801824724 4.653743871591253 0.0 0.0 0.0
0.0 0.0 832.7248586497032 24.447260464854683 -18.556606610087407 3.916719878189748 0.0 3.1836606918946333e-15 0.0 0.008986117493300565 9.705008036827309 0.3648245338397912 0.1648481375290426 22.9922586914126 -4.275019381584654 0.0 0.0 -3.975693351829396e-16 0.0 3.1836606918946333e-15 0.0 0.003964300307900191 9.48011975428585 0.5942148367460008 0.14246830772521923 -7.956323419430993e-16 -3.965804556999269e-16 0.0 0.0 0.0 -86.87379490606479 14.631588941063734 45.28367774796405 -110.71207517499433 -9.99488978761295e-16 -7.041353718585098e-15 0.0 0.0 0.0 0.0 0.0 0.0 -4.788574350685296 -6.459684864179181 -5.45015262766051 0.0 0.0 0.0 74.89100664057217 1.8911224192039 -38.97127385291854 118.49208276073466 8.199830170387335e-15 4.879153401238895e-15 0.0 0.0 -3.975693351829396e-16 0.0 3.1836606918946333e-15 0.0 0.0004240084551352633 12.650031491727878 -3.0213263758326825 -1.0748877754273038 19.715487621834384 4.644377959651568 -3.1805546814635168e-15 -1.1034765745125397e-32 3.975693351829396e-16
0.0 0.0 832.7248586497032 24.509415132559326 -18.52854303326831 3.917839027773352 0.0 0.0 0.0 -0.0015057657256150143 9.642482307492234 0.3431851579894035 0.12804016321102585 22.812508004062508 -4.244137159322144 3.1805546814635164e-15 -9.93923337957349e-17 -3.9756933518293955e-16 0.0 0.0 0.0 -0.0063193786888659205 9.485301423701287 0.6464052118682189 0.14328159071377808 -1.7880663942988854e-15 7.973750336671845e-16 0.0 0.0 0.0 -86.977409203974 14.811324550607834 45.3154924059898 -110.63879172375357 7.0407130867793486e-15 -1.003991851835203e-15 0.0 0.0 -7.951386703658792e-16 0.0 0.0 0.0 -4.9438826983673385 -6.431202422816155 -5.44719951550526 0.0 0.0 0.0 74.72931340306893 1.686111871807108 -38.97711823852555 118.68810872357346 3.850403380496837e-15 5.9794677201533574e-15 0.0 0.0 0.0 0.0 0.0 0.0 -0.01335257184234879 12.599524373840362 -3.010645442481566 -1.0895226879083286 19.64558894268729 4.59959266076244 -6.896728590703373e-34 1.987846675914698e-16 3.975693351829396e-16
0.0 0.0 832.7248586497032 24.529418833760005 -18.51162987594318 3.9720278049207827 0.0 0.0 -7.951386703658792e-16 8.343407617538946e-05 9.533349474733843 0.21393168037613214 0.07752777339948419 22.77304861921771 -4.122824415762418 -3.1805546814635168e-15 9.939233379573487e-17 7.951386703658792e-16 0.0 0.0 -7.951386703658792e-16 -0.004761341302126277 9.509570442668656 0.6404016152513669 0.1557507581475166 -7.945975670795652e-16 3.9864970560663767e-16 0.0 0.0 0.0 -87.09178219340423 14.888071045400535 45.29862191290178 -110.65584801180854 2.6157562045643244e-15 -1.8093500380144064e-15 -1.5902773407317584e-15 0.0 0.0 0.0 0.0 0.0 -5.03480152411617 -6.422233002984625 -5.457021439282955 0.0 0.0 0.0 74.57667057917328 1.5072416151990995 -38.9728876676244 118.89060746679421 -1.2572534491111082e-14 -3.728559220405866e-15 -6.3611093629270335e-15 3.1805546814635168e-15 3.975693351829398e-16 0.0 0.0 -7.951386703658792e-16 -0.011176900520101316 12.581331161453724 -3.0709620848138752 -1.1044575861834605 19.593077648317134 4.5885815310279625 0.0 0.0 -3.975693351829396e-16
0.0 0.0 832.7248586497032 24.564383002681897 -18.538777068916687 3.9703383519155993 0.0 0.0 7.951386703658792e-16 -0.005603744465729522 9.460034958410361 0.24380190305247418 0.0761888540000528 22.987167494030444 -4.1984223403410255 -3.1805546814635168e-15 1.1034765745125397e-32 -3.975693351829396e-16 0.0 0.0 7.951386703658792e-16 -0.01052868031320897 9.505354151320496 0.6510981963156327 0.13189898086197605 -8.936151787549497e-16 7.961677805691234e-16 0.0 0.0 0.0 -87.15175710427384 14.880143274338769 45.23666571056344 -110.7125250969813 2.112407292850326e-14 -2.9983839966476935e-15 0.0 0.0 0.0 0.0 0.0 0.0 -5.034110112979651 -6.438295358587929 -5.399444681435084 0.0 0.0 0.0 74.41980673583629 1.3448506878359914 -38.96069088554207 119.09245019914917 4.353802159141134e-15 -1.129718072183047e-15 0.0 0.0 0.0 0.0 0.0 7.951386703658792e-16 -0.01892147384442964 12.615284513583077 -3.035060641766762 -1.1051137951795027 19.60737259149983 4.592649644081615 0.0 0.0 3.975693351829396e-16
0.0 0.0 832.7248586497032 24.590895751979005 -18.60903863418438 3.9824961781732098 0.0 0.0 -7.951386703658792e-16 -0.010551979660338712 9.468058091332628 0.19474749988669993 0.043029722817815884 23.106144784143122 -4.073981862610515 0.0 0.0 7.951386703658791e-16 0.0 0.0 -7.951386703658792e-16 -0.015503262445995678 9.549710835283108 0.6814559117209925 0.1268787292798448 9.943629276384008e-16 3.964685941565504e-16 0.0 0.0 0.0 -87.22416728766561 14.86743105046276 45.26240733757502 -110.61686341800775 -3.620479652003569e-15 -5.2302810074169145e-15 -1.5902773407317582e-15 6.361109362927033e-15 8.827812596100317e-32 0.0 0.0 0.0 -5.1782379260431 -6.349006238984106 -5.372729136461631 0.0 0.0 0.0 74.23226133537482 1.1325580590667663 -39.043034191820446 119.21143645636249 3.877670739824462e-15 5.961821034080666e-15 0.0 0.0 3.975693351829396e-16 0.0 0.0 -7.951386703658792e-16 -0.025528663130604038 12.683360089503019 -3.0300348132451305 -1.1152211304304156 19.626578422322442 4.651474383808805 0.0 0.0 -1.1927080055488188e-15
0.0 0.0 832.7248586497032 24.58925634243115 -18.630788874175867 4.029497993150748 0.0 0.0 0.0 -0.012549734903465525 9.40081388231295 0.19958425237341024 0.039964084775037496 23.402561814250387 -4.168223503038563 0.0 0.0 0.0 0.0 0.0 0.0 -0.01776398895833694 9.570894456802277 0.6707728233280913 0.095409894686836 -9.942540129753388e-16 -3.967416485529568e-16 1.0345092886055059e-32 1.4908850069360234e-15 -7.951386703658791e-16 -87.30288828864283 14.896517018297683 45.27423956388383 -110.6346820149712 -7.0406770751129384e-15 1.0042443591460132e-15 0.0 0.0 7.951386703658792e-16 1.0345092886055059e-32 1.4908850069360234e-15 -7.951386703658791e-16 -5.303071790550775 -6.339729560561832 -5.442661154653425 1.0345092886055059e-32 1.4908850069360234e-15 -7.951386703658791e-16 74.05385440548989 0.9088540536187566 -39.125733060271195 119.46193395201078 -1.1437503747805717e-15 -4.350136922413855e-15 0.0 0.0 -3.975693351829396e-16 0.0 0.0 0.0 -0.028512720666768545 12.65042573049352 -3.049626994511786 -1.13889457303753 19.81650139963498 4.678779590544494 -3.4483642953516864e-33 -1.987846675914698e-16 -1.987846675914698e-15
0.0 0.0 832.7248586497032 24.56938837184753 -18.614809253761955 4.020928945829199 0.0 0.0 0.0 -0.01900876468245288 9.351206939529506 0.21000546701037318 0.027044707532251966 23.602189077647438 -4.181528381029306 0.0 0.0 -3.975693351829396e-16 0.0 0.0 0.0 -0.024607678079613674 9.585692962637593 0.6782889483390042 0.12220947820248035 5.959296644134394e-16 -3.982051079217219e-16 0.0 0.0 0.0 -87.3059851007429 14.938010079711407 45.18374542117407 -110.7055083499275 1.6699132933583073e-14 -3.8080012655100926e-15 -3.1805546814635164e-15 -2.2069531490250793e-32 7.951386703658791e-16 0.0 0.0 0.0 -5.4591599783490565 -6.468039344655633 -5.357004653121381 0.0 0.0 0.0 73.93230052413767 0.7097650043990195 -39.146885584687844 119.76708798685866 8.253609484201154e-15 4.787617697594517e-15 0.0 0.0 0.0 0.0 0.0 0.0 -0.03742686235029952 12.560906281162033 -3.066629822558804 -1.1741016631434227 20.038549048570314 4.747136139213923 0.0 0.0 7.951386703658792e-16
